<svg id="visual" viewBox="0 0 450 900" width="450" height="900" xmlns="http://www.w3.org/2000/svg" xmlns:xlink="http://www.w3.org/1999/xlink" version="1.1"><g stroke-width="1" stroke-linejoin="bevel"><path d="M188 460L161 472L194 484Z" fill="#002e9b" stroke="#BAFFF1"></path><path d="M137 438L128 484L161 472Z" fill="#26c486" stroke="#BAFFF1"></path><path d="M161 472L139 518L194 484Z" fill="#0085bb" stroke="#BAFFF1"></path><path d="M188 460L137 438L161 472Z" fill="#0085bb" stroke="#BAFFF1"></path><path d="M128 484L139 518L161 472Z" fill="#7acc66" stroke="#BAFFF1"></path><path d="M267 456L188 391L188 460Z" fill="#7acc66" stroke="#BAFFF1"></path><path d="M188 460L188 391L137 438Z" fill="#26c486" stroke="#BAFFF1"></path><path d="M139 518L160 559L194 484Z" fill="#26c486" stroke="#BAFFF1"></path><path d="M278 476L267 456L194 484Z" fill="#0047a9" stroke="#BAFFF1"></path><path d="M194 484L267 456L188 460Z" fill="#0085bb" stroke="#BAFFF1"></path><path d="M224 572L256 529L194 484Z" fill="#002e9b" stroke="#BAFFF1"></path><path d="M160 559L189 570L194 484Z" fill="#00b8a4" stroke="#BAFFF1"></path><path d="M128 484L91 520L139 518Z" fill="#00a9b9" stroke="#BAFFF1"></path><path d="M139 518L118 595L160 559Z" fill="#00b8a4" stroke="#BAFFF1"></path><path d="M64 484L91 520L128 484Z" fill="#26c486" stroke="#BAFFF1"></path><path d="M256 529L278 476L194 484Z" fill="#0047a9" stroke="#BAFFF1"></path><path d="M189 570L224 572L194 484Z" fill="#7acc66" stroke="#BAFFF1"></path><path d="M278 476L287 468L267 456Z" fill="#00a9b9" stroke="#BAFFF1"></path><path d="M267 456L284 431L188 391Z" fill="#0071b8" stroke="#BAFFF1"></path><path d="M329 483L287 468L278 476Z" fill="#0047a9" stroke="#BAFFF1"></path><path d="M189 570L216 582L224 572Z" fill="#26c486" stroke="#BAFFF1"></path><path d="M185 626L216 582L189 570Z" fill="#0071b8" stroke="#BAFFF1"></path><path d="M287 468L284 431L267 456Z" fill="#26c486" stroke="#BAFFF1"></path><path d="M69 396L64 484L137 438Z" fill="#0071b8" stroke="#BAFFF1"></path><path d="M137 438L64 484L128 484Z" fill="#00b8a4" stroke="#BAFFF1"></path><path d="M224 572L262 557L256 529Z" fill="#26c486" stroke="#BAFFF1"></path><path d="M256 529L329 483L278 476Z" fill="#0085bb" stroke="#BAFFF1"></path><path d="M265 594L262 557L224 572Z" fill="#0047a9" stroke="#BAFFF1"></path><path d="M248 352L204 356L188 391Z" fill="#0085bb" stroke="#BAFFF1"></path><path d="M188 391L151 352L137 438Z" fill="#7acc66" stroke="#BAFFF1"></path><path d="M204 356L151 352L188 391Z" fill="#7acc66" stroke="#BAFFF1"></path><path d="M91 520L118 595L139 518Z" fill="#7acc66" stroke="#BAFFF1"></path><path d="M160 559L185 626L189 570Z" fill="#0071b8" stroke="#BAFFF1"></path><path d="M40 618L118 595L91 520Z" fill="#00b8a4" stroke="#BAFFF1"></path><path d="M151 352L69 396L137 438Z" fill="#00b8a4" stroke="#BAFFF1"></path><path d="M284 431L248 352L188 391Z" fill="#0085bb" stroke="#BAFFF1"></path><path d="M127 276L110 336L151 352Z" fill="#005db2" stroke="#BAFFF1"></path><path d="M185 626L265 594L216 582Z" fill="#0047a9" stroke="#BAFFF1"></path><path d="M216 582L265 594L224 572Z" fill="#26c486" stroke="#BAFFF1"></path><path d="M296 570L329 483L256 529Z" fill="#00b8a4" stroke="#BAFFF1"></path><path d="M296 570L256 529L262 557Z" fill="#7acc66" stroke="#BAFFF1"></path><path d="M287 468L329 483L284 431Z" fill="#0047a9" stroke="#BAFFF1"></path><path d="M284 431L296 378L248 352Z" fill="#002e9b" stroke="#BAFFF1"></path><path d="M265 594L296 570L262 557Z" fill="#0071b8" stroke="#BAFFF1"></path><path d="M118 595L185 626L160 559Z" fill="#0085bb" stroke="#BAFFF1"></path><path d="M303 374L296 378L284 431Z" fill="#0085bb" stroke="#BAFFF1"></path><path d="M217 282L151 352L204 356Z" fill="#26c486" stroke="#BAFFF1"></path><path d="M151 352L110 336L69 396Z" fill="#7acc66" stroke="#BAFFF1"></path><path d="M386 392L303 374L284 431Z" fill="#0071b8" stroke="#BAFFF1"></path><path d="M296 378L270 323L248 352Z" fill="#00a9b9" stroke="#BAFFF1"></path><path d="M11 436L64 484L69 396Z" fill="#0085bb" stroke="#BAFFF1"></path><path d="M11 436L14 469L64 484Z" fill="#0047a9" stroke="#BAFFF1"></path><path d="M64 484L11 550L91 520Z" fill="#0047a9" stroke="#BAFFF1"></path><path d="M110 336L48 371L69 396Z" fill="#0098c1" stroke="#BAFFF1"></path><path d="M118 595L181 643L185 626Z" fill="#0071b8" stroke="#BAFFF1"></path><path d="M185 626L277 672L265 594Z" fill="#26c486" stroke="#BAFFF1"></path><path d="M0 416L11 436L69 396Z" fill="#0047a9" stroke="#BAFFF1"></path><path d="M303 374L270 323L296 378Z" fill="#0071b8" stroke="#BAFFF1"></path><path d="M248 352L217 282L204 356Z" fill="#002e9b" stroke="#BAFFF1"></path><path d="M0 424L0 501L14 469Z" fill="#0071b8" stroke="#BAFFF1"></path><path d="M14 469L0 501L64 484Z" fill="#0047a9" stroke="#BAFFF1"></path><path d="M303 374L276 320L270 323Z" fill="#250687" stroke="#BAFFF1"></path><path d="M270 323L217 282L248 352Z" fill="#0071b8" stroke="#BAFFF1"></path><path d="M0 532L11 550L64 484Z" fill="#005db2" stroke="#BAFFF1"></path><path d="M118 595L134 666L181 643Z" fill="#26c486" stroke="#BAFFF1"></path><path d="M0 416L0 424L11 436Z" fill="#0071b8" stroke="#BAFFF1"></path><path d="M11 436L0 424L14 469Z" fill="#26c486" stroke="#BAFFF1"></path><path d="M0 501L0 532L64 484Z" fill="#00b8a4" stroke="#BAFFF1"></path><path d="M48 371L0 416L69 396Z" fill="#002e9b" stroke="#BAFFF1"></path><path d="M385 502L372 471L329 483Z" fill="#0071b8" stroke="#BAFFF1"></path><path d="M329 483L372 471L284 431Z" fill="#0071b8" stroke="#BAFFF1"></path><path d="M303 374L359 336L276 320Z" fill="#0085bb" stroke="#BAFFF1"></path><path d="M77 680L134 666L118 595Z" fill="#0071b8" stroke="#BAFFF1"></path><path d="M276 320L217 282L270 323Z" fill="#26c486" stroke="#BAFFF1"></path><path d="M44 641L40 618L0 611Z" fill="#0085bb" stroke="#BAFFF1"></path><path d="M11 550L40 618L91 520Z" fill="#7acc66" stroke="#BAFFF1"></path><path d="M110 336L53 320L48 371Z" fill="#250687" stroke="#BAFFF1"></path><path d="M48 371L0 321L0 416Z" fill="#00a9b9" stroke="#BAFFF1"></path><path d="M110 274L53 320L110 336Z" fill="#0085bb" stroke="#BAFFF1"></path><path d="M315 644L353 574L296 570Z" fill="#0085bb" stroke="#BAFFF1"></path><path d="M296 570L353 574L329 483Z" fill="#002e9b" stroke="#BAFFF1"></path><path d="M315 644L296 570L265 594Z" fill="#0071b8" stroke="#BAFFF1"></path><path d="M300 657L265 594L277 672Z" fill="#0047a9" stroke="#BAFFF1"></path><path d="M134 666L183 679L181 643Z" fill="#0047a9" stroke="#BAFFF1"></path><path d="M217 282L127 276L151 352Z" fill="#005db2" stroke="#BAFFF1"></path><path d="M384 540L385 502L329 483Z" fill="#00a9b9" stroke="#BAFFF1"></path><path d="M94 230L110 274L127 276Z" fill="#26c486" stroke="#BAFFF1"></path><path d="M127 276L110 274L110 336Z" fill="#250687" stroke="#BAFFF1"></path><path d="M0 611L40 618L11 550Z" fill="#250687" stroke="#BAFFF1"></path><path d="M40 618L44 641L118 595Z" fill="#00a9b9" stroke="#BAFFF1"></path><path d="M353 574L384 540L329 483Z" fill="#005db2" stroke="#BAFFF1"></path><path d="M300 657L315 644L265 594Z" fill="#0047a9" stroke="#BAFFF1"></path><path d="M353 574L384 587L384 540Z" fill="#0071b8" stroke="#BAFFF1"></path><path d="M277 672L185 626L181 643Z" fill="#00a9b9" stroke="#BAFFF1"></path><path d="M183 679L277 672L181 643Z" fill="#7acc66" stroke="#BAFFF1"></path><path d="M77 680L121 690L134 666Z" fill="#00b8a4" stroke="#BAFFF1"></path><path d="M134 666L121 690L183 679Z" fill="#0071b8" stroke="#BAFFF1"></path><path d="M183 679L221 725L277 672Z" fill="#26c486" stroke="#BAFFF1"></path><path d="M229 238L189 252L217 282Z" fill="#250687" stroke="#BAFFF1"></path><path d="M217 282L189 252L127 276Z" fill="#00a9b9" stroke="#BAFFF1"></path><path d="M450 421L386 392L372 471Z" fill="#00b8a4" stroke="#BAFFF1"></path><path d="M372 471L386 392L284 431Z" fill="#00a9b9" stroke="#BAFFF1"></path><path d="M276 320L229 238L217 282Z" fill="#0085bb" stroke="#BAFFF1"></path><path d="M0 532L0 611L11 550Z" fill="#0047a9" stroke="#BAFFF1"></path><path d="M379 359L359 336L303 374Z" fill="#00a9b9" stroke="#BAFFF1"></path><path d="M44 641L77 680L118 595Z" fill="#0085bb" stroke="#BAFFF1"></path><path d="M0 686L77 680L44 641Z" fill="#00b8a4" stroke="#BAFFF1"></path><path d="M386 392L379 359L303 374Z" fill="#0047a9" stroke="#BAFFF1"></path><path d="M422 560L450 629L450 560Z" fill="#0047a9" stroke="#BAFFF1"></path><path d="M315 644L384 587L353 574Z" fill="#005db2" stroke="#BAFFF1"></path><path d="M384 540L413 517L385 502Z" fill="#00a9b9" stroke="#BAFFF1"></path><path d="M12 295L0 321L53 320Z" fill="#0071b8" stroke="#BAFFF1"></path><path d="M53 320L0 321L48 371Z" fill="#002e9b" stroke="#BAFFF1"></path><path d="M210 735L185 711L167 771Z" fill="#0071b8" stroke="#BAFFF1"></path><path d="M121 690L185 711L183 679Z" fill="#0098c1" stroke="#BAFFF1"></path><path d="M422 560L413 517L384 540Z" fill="#7acc66" stroke="#BAFFF1"></path><path d="M385 502L413 517L372 471Z" fill="#26c486" stroke="#BAFFF1"></path><path d="M425 363L381 341L379 359Z" fill="#005db2" stroke="#BAFFF1"></path><path d="M302 224L229 238L276 320Z" fill="#00a9b9" stroke="#BAFFF1"></path><path d="M152 195L94 230L127 276Z" fill="#002e9b" stroke="#BAFFF1"></path><path d="M379 359L381 341L359 336Z" fill="#005db2" stroke="#BAFFF1"></path><path d="M359 336L375 279L276 320Z" fill="#002e9b" stroke="#BAFFF1"></path><path d="M425 363L379 359L386 392Z" fill="#0085bb" stroke="#BAFFF1"></path><path d="M61 222L12 295L53 320Z" fill="#00b8a4" stroke="#BAFFF1"></path><path d="M0 293L12 295L0 231Z" fill="#26c486" stroke="#BAFFF1"></path><path d="M287 212L218 228L229 238Z" fill="#26c486" stroke="#BAFFF1"></path><path d="M229 238L218 228L189 252Z" fill="#00b8a4" stroke="#BAFFF1"></path><path d="M277 672L331 688L300 657Z" fill="#7acc66" stroke="#BAFFF1"></path><path d="M392 684L384 587L315 644Z" fill="#00b8a4" stroke="#BAFFF1"></path><path d="M185 711L221 725L183 679Z" fill="#0071b8" stroke="#BAFFF1"></path><path d="M210 735L221 725L185 711Z" fill="#0098c1" stroke="#BAFFF1"></path><path d="M61 222L53 320L110 274Z" fill="#250687" stroke="#BAFFF1"></path><path d="M12 295L0 293L0 321Z" fill="#00b8a4" stroke="#BAFFF1"></path><path d="M384 587L422 560L384 540Z" fill="#7acc66" stroke="#BAFFF1"></path><path d="M450 377L425 363L386 392Z" fill="#00b8a4" stroke="#BAFFF1"></path><path d="M331 688L315 644L300 657Z" fill="#00a9b9" stroke="#BAFFF1"></path><path d="M152 195L127 276L189 252Z" fill="#0098c1" stroke="#BAFFF1"></path><path d="M123 744L185 711L121 690Z" fill="#002e9b" stroke="#BAFFF1"></path><path d="M305 728L331 688L277 672Z" fill="#00a9b9" stroke="#BAFFF1"></path><path d="M305 728L277 672L221 725Z" fill="#0085bb" stroke="#BAFFF1"></path><path d="M450 421L372 471L413 517Z" fill="#250687" stroke="#BAFFF1"></path><path d="M381 341L375 279L359 336Z" fill="#005db2" stroke="#BAFFF1"></path><path d="M422 560L450 514L413 517Z" fill="#0071b8" stroke="#BAFFF1"></path><path d="M53 725L121 690L77 680Z" fill="#00a9b9" stroke="#BAFFF1"></path><path d="M53 725L123 744L121 690Z" fill="#0047a9" stroke="#BAFFF1"></path><path d="M0 611L0 686L44 641Z" fill="#0098c1" stroke="#BAFFF1"></path><path d="M450 514L450 421L413 517Z" fill="#0071b8" stroke="#BAFFF1"></path><path d="M450 327L375 279L381 341Z" fill="#7acc66" stroke="#BAFFF1"></path><path d="M0 686L0 688L77 680Z" fill="#0085bb" stroke="#BAFFF1"></path><path d="M61 200L61 222L94 230Z" fill="#7acc66" stroke="#BAFFF1"></path><path d="M94 230L61 222L110 274Z" fill="#00b8a4" stroke="#BAFFF1"></path><path d="M210 735L228 750L221 725Z" fill="#00a9b9" stroke="#BAFFF1"></path><path d="M228 763L228 750L210 774Z" fill="#7acc66" stroke="#BAFFF1"></path><path d="M0 688L53 725L77 680Z" fill="#0071b8" stroke="#BAFFF1"></path><path d="M375 279L302 224L276 320Z" fill="#7acc66" stroke="#BAFFF1"></path><path d="M185 186L152 195L189 252Z" fill="#005db2" stroke="#BAFFF1"></path><path d="M185 186L189 252L218 228Z" fill="#0098c1" stroke="#BAFFF1"></path><path d="M228 750L305 728L221 725Z" fill="#0085bb" stroke="#BAFFF1"></path><path d="M450 629L422 560L384 587Z" fill="#00a9b9" stroke="#BAFFF1"></path><path d="M422 560L450 560L450 514Z" fill="#0071b8" stroke="#BAFFF1"></path><path d="M392 684L315 644L331 688Z" fill="#0071b8" stroke="#BAFFF1"></path><path d="M312 216L287 212L302 224Z" fill="#005db2" stroke="#BAFFF1"></path><path d="M302 224L287 212L229 238Z" fill="#005db2" stroke="#BAFFF1"></path><path d="M450 421L450 377L386 392Z" fill="#26c486" stroke="#BAFFF1"></path><path d="M425 363L450 327L381 341Z" fill="#00b8a4" stroke="#BAFFF1"></path><path d="M214 174L185 186L218 228Z" fill="#26c486" stroke="#BAFFF1"></path><path d="M354 214L312 216L302 224Z" fill="#005db2" stroke="#BAFFF1"></path><path d="M232 167L214 174L218 228Z" fill="#005db2" stroke="#BAFFF1"></path><path d="M228 750L228 763L305 728Z" fill="#0098c1" stroke="#BAFFF1"></path><path d="M210 774L228 750L210 735Z" fill="#00b8a4" stroke="#BAFFF1"></path><path d="M135 826L167 771L123 744Z" fill="#0047a9" stroke="#BAFFF1"></path><path d="M123 744L167 771L185 711Z" fill="#26c486" stroke="#BAFFF1"></path><path d="M384 692L392 684L331 688Z" fill="#005db2" stroke="#BAFFF1"></path><path d="M370 728L384 692L331 688Z" fill="#00a9b9" stroke="#BAFFF1"></path><path d="M84 165L61 200L94 230Z" fill="#0047a9" stroke="#BAFFF1"></path><path d="M61 222L0 231L12 295Z" fill="#0098c1" stroke="#BAFFF1"></path><path d="M84 165L94 230L88 162Z" fill="#0047a9" stroke="#BAFFF1"></path><path d="M167 771L210 774L210 735Z" fill="#002e9b" stroke="#BAFFF1"></path><path d="M329 773L370 728L305 728Z" fill="#00a9b9" stroke="#BAFFF1"></path><path d="M305 728L370 728L331 688Z" fill="#005db2" stroke="#BAFFF1"></path><path d="M10 203L0 231L61 222Z" fill="#0085bb" stroke="#BAFFF1"></path><path d="M232 167L218 228L287 212Z" fill="#00b8a4" stroke="#BAFFF1"></path><path d="M88 162L94 230L152 195Z" fill="#005db2" stroke="#BAFFF1"></path><path d="M450 377L450 327L425 363Z" fill="#250687" stroke="#BAFFF1"></path><path d="M375 279L354 214L302 224Z" fill="#26c486" stroke="#BAFFF1"></path><path d="M450 630L384 587L392 684Z" fill="#00a9b9" stroke="#BAFFF1"></path><path d="M450 630L450 629L384 587Z" fill="#00a9b9" stroke="#BAFFF1"></path><path d="M450 712L450 630L392 684Z" fill="#00a9b9" stroke="#BAFFF1"></path><path d="M263 166L232 167L287 212Z" fill="#0071b8" stroke="#BAFFF1"></path><path d="M88 162L152 195L186 142Z" fill="#7acc66" stroke="#BAFFF1"></path><path d="M428 225L354 214L375 279Z" fill="#002e9b" stroke="#BAFFF1"></path><path d="M312 216L263 166L287 212Z" fill="#00b8a4" stroke="#BAFFF1"></path><path d="M329 773L305 728L228 763Z" fill="#002e9b" stroke="#BAFFF1"></path><path d="M384 692L450 712L392 684Z" fill="#0071b8" stroke="#BAFFF1"></path><path d="M0 138L10 203L61 200Z" fill="#002e9b" stroke="#BAFFF1"></path><path d="M61 200L10 203L61 222Z" fill="#0071b8" stroke="#BAFFF1"></path><path d="M363 172L263 166L312 216Z" fill="#0098c1" stroke="#BAFFF1"></path><path d="M152 195L185 186L186 142Z" fill="#00a9b9" stroke="#BAFFF1"></path><path d="M185 186L214 174L186 142Z" fill="#002e9b" stroke="#BAFFF1"></path><path d="M186 142L214 174L232 167Z" fill="#005db2" stroke="#BAFFF1"></path><path d="M0 138L0 200L10 203Z" fill="#00a9b9" stroke="#BAFFF1"></path><path d="M0 138L61 200L84 165Z" fill="#00a9b9" stroke="#BAFFF1"></path><path d="M10 203L0 200L0 231Z" fill="#00b8a4" stroke="#BAFFF1"></path><path d="M0 763L62 783L53 725Z" fill="#0098c1" stroke="#BAFFF1"></path><path d="M53 725L62 783L123 744Z" fill="#0071b8" stroke="#BAFFF1"></path><path d="M167 771L181 839L210 774Z" fill="#002e9b" stroke="#BAFFF1"></path><path d="M450 327L450 286L375 279Z" fill="#0098c1" stroke="#BAFFF1"></path><path d="M236 98L186 142L232 167Z" fill="#26c486" stroke="#BAFFF1"></path><path d="M450 286L450 281L375 279Z" fill="#0047a9" stroke="#BAFFF1"></path><path d="M336 775L329 773L320 817Z" fill="#00a9b9" stroke="#BAFFF1"></path><path d="M320 817L329 773L228 763Z" fill="#005db2" stroke="#BAFFF1"></path><path d="M320 817L228 763L245 845Z" fill="#00a9b9" stroke="#BAFFF1"></path><path d="M329 773L336 775L370 728Z" fill="#005db2" stroke="#BAFFF1"></path><path d="M370 728L450 712L384 692Z" fill="#250687" stroke="#BAFFF1"></path><path d="M0 688L0 763L53 725Z" fill="#26c486" stroke="#BAFFF1"></path><path d="M342 111L261 142L263 166Z" fill="#0085bb" stroke="#BAFFF1"></path><path d="M263 166L261 142L232 167Z" fill="#250687" stroke="#BAFFF1"></path><path d="M363 172L312 216L354 214Z" fill="#002e9b" stroke="#BAFFF1"></path><path d="M0 763L45 795L62 783Z" fill="#0098c1" stroke="#BAFFF1"></path><path d="M62 783L135 826L123 744Z" fill="#00a9b9" stroke="#BAFFF1"></path><path d="M450 281L428 225L375 279Z" fill="#002e9b" stroke="#BAFFF1"></path><path d="M45 795L135 826L62 783Z" fill="#0071b8" stroke="#BAFFF1"></path><path d="M409 174L363 172L354 214Z" fill="#0071b8" stroke="#BAFFF1"></path><path d="M0 763L0 788L45 795Z" fill="#26c486" stroke="#BAFFF1"></path><path d="M45 795L133 860L135 826Z" fill="#26c486" stroke="#BAFFF1"></path><path d="M414 778L450 712L370 728Z" fill="#0098c1" stroke="#BAFFF1"></path><path d="M133 860L181 839L135 826Z" fill="#0047a9" stroke="#BAFFF1"></path><path d="M135 826L181 839L167 771Z" fill="#250687" stroke="#BAFFF1"></path><path d="M450 281L450 230L428 225Z" fill="#0085bb" stroke="#BAFFF1"></path><path d="M428 225L409 174L354 214Z" fill="#0047a9" stroke="#BAFFF1"></path><path d="M245 845L228 763L210 774Z" fill="#00a9b9" stroke="#BAFFF1"></path><path d="M336 775L364 801L370 728Z" fill="#0071b8" stroke="#BAFFF1"></path><path d="M130 97L77 116L88 162Z" fill="#0098c1" stroke="#BAFFF1"></path><path d="M88 162L77 116L84 165Z" fill="#0085bb" stroke="#BAFFF1"></path><path d="M130 97L88 162L186 142Z" fill="#7acc66" stroke="#BAFFF1"></path><path d="M320 817L364 801L336 775Z" fill="#26c486" stroke="#BAFFF1"></path><path d="M181 839L245 845L210 774Z" fill="#00b8a4" stroke="#BAFFF1"></path><path d="M320 817L385 859L364 801Z" fill="#0085bb" stroke="#BAFFF1"></path><path d="M450 230L409 174L428 225Z" fill="#00a9b9" stroke="#BAFFF1"></path><path d="M270 102L236 98L261 142Z" fill="#002e9b" stroke="#BAFFF1"></path><path d="M236 98L232 167L261 142Z" fill="#00b8a4" stroke="#BAFFF1"></path><path d="M149 74L130 97L186 142Z" fill="#00a9b9" stroke="#BAFFF1"></path><path d="M270 102L261 142L342 111Z" fill="#00b8a4" stroke="#BAFFF1"></path><path d="M65 102L0 138L77 116Z" fill="#26c486" stroke="#BAFFF1"></path><path d="M77 116L0 138L84 165Z" fill="#26c486" stroke="#BAFFF1"></path><path d="M364 801L414 778L370 728Z" fill="#250687" stroke="#BAFFF1"></path><path d="M342 111L263 166L363 172Z" fill="#00b8a4" stroke="#BAFFF1"></path><path d="M62 900L133 860L45 795Z" fill="#0098c1" stroke="#BAFFF1"></path><path d="M181 839L169 886L245 845Z" fill="#00a9b9" stroke="#BAFFF1"></path><path d="M130 97L65 102L77 116Z" fill="#00b8a4" stroke="#BAFFF1"></path><path d="M65 102L0 124L0 138Z" fill="#00b8a4" stroke="#BAFFF1"></path><path d="M245 845L276 861L320 817Z" fill="#0098c1" stroke="#BAFFF1"></path><path d="M450 836L450 782L414 778Z" fill="#00a9b9" stroke="#BAFFF1"></path><path d="M272 900L276 861L245 845Z" fill="#0098c1" stroke="#BAFFF1"></path><path d="M368 100L342 111L363 172Z" fill="#0071b8" stroke="#BAFFF1"></path><path d="M236 98L193 76L186 142Z" fill="#005db2" stroke="#BAFFF1"></path><path d="M67 62L42 75L65 102Z" fill="#00a9b9" stroke="#BAFFF1"></path><path d="M231 39L193 76L236 98Z" fill="#26c486" stroke="#BAFFF1"></path><path d="M231 39L236 98L277 35Z" fill="#00b8a4" stroke="#BAFFF1"></path><path d="M193 76L149 74L186 142Z" fill="#002e9b" stroke="#BAFFF1"></path><path d="M0 788L0 838L45 795Z" fill="#26c486" stroke="#BAFFF1"></path><path d="M62 900L133 880L133 860Z" fill="#00b8a4" stroke="#BAFFF1"></path><path d="M133 860L169 886L181 839Z" fill="#0085bb" stroke="#BAFFF1"></path><path d="M414 843L414 778L364 801Z" fill="#26c486" stroke="#BAFFF1"></path><path d="M414 778L450 782L450 712Z" fill="#26c486" stroke="#BAFFF1"></path><path d="M133 880L169 886L133 860Z" fill="#00b8a4" stroke="#BAFFF1"></path><path d="M409 174L368 100L363 172Z" fill="#0085bb" stroke="#BAFFF1"></path><path d="M342 111L326 75L270 102Z" fill="#0047a9" stroke="#BAFFF1"></path><path d="M450 128L368 100L409 174Z" fill="#7acc66" stroke="#BAFFF1"></path><path d="M67 62L65 102L130 97Z" fill="#26c486" stroke="#BAFFF1"></path><path d="M65 102L42 75L0 124Z" fill="#002e9b" stroke="#BAFFF1"></path><path d="M0 838L14 865L45 795Z" fill="#0098c1" stroke="#BAFFF1"></path><path d="M164 900L172 900L169 886Z" fill="#250687" stroke="#BAFFF1"></path><path d="M164 900L169 886L137 900Z" fill="#005db2" stroke="#BAFFF1"></path><path d="M169 886L172 900L245 845Z" fill="#0047a9" stroke="#BAFFF1"></path><path d="M137 900L169 886L133 880Z" fill="#0071b8" stroke="#BAFFF1"></path><path d="M368 100L326 75L342 111Z" fill="#250687" stroke="#BAFFF1"></path><path d="M109 0L67 62L149 74Z" fill="#0085bb" stroke="#BAFFF1"></path><path d="M62 900L137 900L133 880Z" fill="#0098c1" stroke="#BAFFF1"></path><path d="M149 74L67 62L130 97Z" fill="#00a9b9" stroke="#BAFFF1"></path><path d="M137 0L149 74L193 76Z" fill="#7acc66" stroke="#BAFFF1"></path><path d="M172 900L272 900L245 845Z" fill="#0071b8" stroke="#BAFFF1"></path><path d="M353 900L385 859L320 817Z" fill="#005db2" stroke="#BAFFF1"></path><path d="M325 900L320 817L276 861Z" fill="#00a9b9" stroke="#BAFFF1"></path><path d="M450 230L450 134L409 174Z" fill="#005db2" stroke="#BAFFF1"></path><path d="M368 100L359 60L326 75Z" fill="#0047a9" stroke="#BAFFF1"></path><path d="M385 859L414 843L364 801Z" fill="#0047a9" stroke="#BAFFF1"></path><path d="M277 35L236 98L270 102Z" fill="#00b8a4" stroke="#BAFFF1"></path><path d="M14 865L62 900L45 795Z" fill="#250687" stroke="#BAFFF1"></path><path d="M450 134L450 128L409 174Z" fill="#26c486" stroke="#BAFFF1"></path><path d="M272 900L325 900L276 861Z" fill="#00b8a4" stroke="#BAFFF1"></path><path d="M450 848L450 836L414 843Z" fill="#0047a9" stroke="#BAFFF1"></path><path d="M280 25L277 35L326 75Z" fill="#002e9b" stroke="#BAFFF1"></path><path d="M326 75L277 35L270 102Z" fill="#005db2" stroke="#BAFFF1"></path><path d="M414 843L450 836L414 778Z" fill="#002e9b" stroke="#BAFFF1"></path><path d="M450 848L414 843L422 900Z" fill="#0071b8" stroke="#BAFFF1"></path><path d="M404 23L359 60L368 100Z" fill="#250687" stroke="#BAFFF1"></path><path d="M325 900L353 900L320 817Z" fill="#0071b8" stroke="#BAFFF1"></path><path d="M0 838L0 900L14 865Z" fill="#002e9b" stroke="#BAFFF1"></path><path d="M14 865L0 900L62 900Z" fill="#0085bb" stroke="#BAFFF1"></path><path d="M422 900L414 843L385 859Z" fill="#005db2" stroke="#BAFFF1"></path><path d="M331 0L280 25L326 75Z" fill="#0047a9" stroke="#BAFFF1"></path><path d="M277 35L237 0L231 39Z" fill="#26c486" stroke="#BAFFF1"></path><path d="M231 39L137 0L193 76Z" fill="#002e9b" stroke="#BAFFF1"></path><path d="M237 0L137 0L231 39Z" fill="#00b8a4" stroke="#BAFFF1"></path><path d="M37 0L0 32L42 75Z" fill="#0047a9" stroke="#BAFFF1"></path><path d="M37 0L42 75L67 62Z" fill="#002e9b" stroke="#BAFFF1"></path><path d="M42 75L0 32L0 124Z" fill="#00b8a4" stroke="#BAFFF1"></path><path d="M280 25L237 0L277 35Z" fill="#26c486" stroke="#BAFFF1"></path><path d="M288 0L237 0L280 25Z" fill="#0085bb" stroke="#BAFFF1"></path><path d="M137 0L109 0L149 74Z" fill="#0085bb" stroke="#BAFFF1"></path><path d="M331 0L326 75L359 60Z" fill="#0071b8" stroke="#BAFFF1"></path><path d="M331 0L288 0L280 25Z" fill="#00a9b9" stroke="#BAFFF1"></path><path d="M353 900L422 900L385 859Z" fill="#7acc66" stroke="#BAFFF1"></path><path d="M109 0L37 0L67 62Z" fill="#005db2" stroke="#BAFFF1"></path><path d="M332 0L331 0L359 60Z" fill="#250687" stroke="#BAFFF1"></path><path d="M404 23L332 0L359 60Z" fill="#005db2" stroke="#BAFFF1"></path><path d="M422 900L450 900L450 848Z" fill="#250687" stroke="#BAFFF1"></path><path d="M450 40L404 23L368 100Z" fill="#00a9b9" stroke="#BAFFF1"></path><path d="M37 0L0 0L0 32Z" fill="#005db2" stroke="#BAFFF1"></path><path d="M450 128L450 40L368 100Z" fill="#00a9b9" stroke="#BAFFF1"></path><path d="M450 40L430 0L404 23Z" fill="#250687" stroke="#BAFFF1"></path><path d="M404 23L430 0L332 0Z" fill="#250687" stroke="#BAFFF1"></path><path d="M450 40L450 0L430 0Z" fill="#005db2" stroke="#BAFFF1"></path></g></svg>