<svg id="visual" viewBox="0 0 675 900" width="675" height="900" xmlns="http://www.w3.org/2000/svg" xmlns:xlink="http://www.w3.org/1999/xlink" version="1.1"><g stroke-width="1" stroke-linejoin="bevel"><path d="M391 474L384 493L443 543Z" fill="#250687" stroke="#BAFFF1"></path><path d="M443 543L430 430L391 474Z" fill="#0047a9" stroke="#BAFFF1"></path><path d="M443 543L528 469L430 430Z" fill="#26c486" stroke="#BAFFF1"></path><path d="M528 469L474 391L430 430Z" fill="#005db2" stroke="#BAFFF1"></path><path d="M268 457L321 544L384 493Z" fill="#00a9b9" stroke="#BAFFF1"></path><path d="M384 493L321 544L443 543Z" fill="#250687" stroke="#BAFFF1"></path><path d="M268 457L384 493L391 474Z" fill="#250687" stroke="#BAFFF1"></path><path d="M397 629L420 619L443 543Z" fill="#005db2" stroke="#BAFFF1"></path><path d="M443 543L551 493L528 469Z" fill="#00b8a4" stroke="#BAFFF1"></path><path d="M533 600L551 493L443 543Z" fill="#005db2" stroke="#BAFFF1"></path><path d="M563 364L557 359L474 391Z" fill="#0047a9" stroke="#BAFFF1"></path><path d="M474 391L385 378L430 430Z" fill="#002e9b" stroke="#BAFFF1"></path><path d="M430 430L385 378L391 474Z" fill="#0071b8" stroke="#BAFFF1"></path><path d="M321 544L397 629L443 543Z" fill="#7acc66" stroke="#BAFFF1"></path><path d="M397 629L453 638L420 619Z" fill="#250687" stroke="#BAFFF1"></path><path d="M420 619L453 638L443 543Z" fill="#00a9b9" stroke="#BAFFF1"></path><path d="M453 638L533 600L443 543Z" fill="#00b8a4" stroke="#BAFFF1"></path><path d="M321 544L379 637L397 629Z" fill="#00b8a4" stroke="#BAFFF1"></path><path d="M397 629L410 728L453 638Z" fill="#0085bb" stroke="#BAFFF1"></path><path d="M385 378L268 457L391 474Z" fill="#00a9b9" stroke="#BAFFF1"></path><path d="M261 552L282 592L321 544Z" fill="#7acc66" stroke="#BAFFF1"></path><path d="M321 544L282 592L379 637Z" fill="#00a9b9" stroke="#BAFFF1"></path><path d="M268 457L261 552L321 544Z" fill="#7acc66" stroke="#BAFFF1"></path><path d="M533 600L615 521L551 493Z" fill="#250687" stroke="#BAFFF1"></path><path d="M563 364L474 391L528 469Z" fill="#00b8a4" stroke="#BAFFF1"></path><path d="M563 364L528 469L620 412Z" fill="#26c486" stroke="#BAFFF1"></path><path d="M478 290L384 295L385 378Z" fill="#0098c1" stroke="#BAFFF1"></path><path d="M620 412L528 469L551 493Z" fill="#0085bb" stroke="#BAFFF1"></path><path d="M336 291L306 350L385 378Z" fill="#26c486" stroke="#BAFFF1"></path><path d="M385 378L306 350L268 457Z" fill="#250687" stroke="#BAFFF1"></path><path d="M478 290L385 378L474 391Z" fill="#0047a9" stroke="#BAFFF1"></path><path d="M615 521L620 412L551 493Z" fill="#0047a9" stroke="#BAFFF1"></path><path d="M453 638L559 665L533 600Z" fill="#00a9b9" stroke="#BAFFF1"></path><path d="M533 600L623 634L615 521Z" fill="#00b8a4" stroke="#BAFFF1"></path><path d="M486 766L559 665L453 638Z" fill="#0098c1" stroke="#BAFFF1"></path><path d="M194 482L224 560L261 552Z" fill="#0098c1" stroke="#BAFFF1"></path><path d="M261 552L224 560L282 592Z" fill="#0085bb" stroke="#BAFFF1"></path><path d="M194 482L261 552L268 457Z" fill="#002e9b" stroke="#BAFFF1"></path><path d="M528 274L478 290L557 359Z" fill="#26c486" stroke="#BAFFF1"></path><path d="M557 359L478 290L474 391Z" fill="#0071b8" stroke="#BAFFF1"></path><path d="M528 274L557 359L567 261Z" fill="#250687" stroke="#BAFFF1"></path><path d="M252 269L243 371L306 350Z" fill="#7acc66" stroke="#BAFFF1"></path><path d="M306 350L243 371L268 457Z" fill="#0085bb" stroke="#BAFFF1"></path><path d="M341 227L336 291L384 295Z" fill="#250687" stroke="#BAFFF1"></path><path d="M384 295L336 291L385 378Z" fill="#0098c1" stroke="#BAFFF1"></path><path d="M354 754L410 728L379 637Z" fill="#0071b8" stroke="#BAFFF1"></path><path d="M379 637L410 728L397 629Z" fill="#0098c1" stroke="#BAFFF1"></path><path d="M269 696L379 637L282 592Z" fill="#7acc66" stroke="#BAFFF1"></path><path d="M559 665L623 634L533 600Z" fill="#0098c1" stroke="#BAFFF1"></path><path d="M615 521L675 433L620 412Z" fill="#002e9b" stroke="#BAFFF1"></path><path d="M184 470L194 482L268 457Z" fill="#00b8a4" stroke="#BAFFF1"></path><path d="M170 619L232 644L224 560Z" fill="#00b8a4" stroke="#BAFFF1"></path><path d="M224 560L232 644L282 592Z" fill="#0098c1" stroke="#BAFFF1"></path><path d="M567 261L557 359L563 364Z" fill="#00a9b9" stroke="#BAFFF1"></path><path d="M464 203L341 227L384 295Z" fill="#250687" stroke="#BAFFF1"></path><path d="M675 565L675 523L615 521Z" fill="#26c486" stroke="#BAFFF1"></path><path d="M243 371L184 470L268 457Z" fill="#0047a9" stroke="#BAFFF1"></path><path d="M194 482L153 490L224 560Z" fill="#0098c1" stroke="#BAFFF1"></path><path d="M623 634L675 565L615 521Z" fill="#0071b8" stroke="#BAFFF1"></path><path d="M675 523L675 433L615 521Z" fill="#26c486" stroke="#BAFFF1"></path><path d="M620 412L675 398L563 364Z" fill="#250687" stroke="#BAFFF1"></path><path d="M232 644L269 696L282 592Z" fill="#250687" stroke="#BAFFF1"></path><path d="M675 433L675 398L620 412Z" fill="#26c486" stroke="#BAFFF1"></path><path d="M320 753L354 754L379 637Z" fill="#00b8a4" stroke="#BAFFF1"></path><path d="M592 759L622 685L559 665Z" fill="#26c486" stroke="#BAFFF1"></path><path d="M567 261L527 251L528 274Z" fill="#0071b8" stroke="#BAFFF1"></path><path d="M528 274L527 251L478 290Z" fill="#0085bb" stroke="#BAFFF1"></path><path d="M559 665L622 685L623 634Z" fill="#0085bb" stroke="#BAFFF1"></path><path d="M623 634L675 689L675 565Z" fill="#0098c1" stroke="#BAFFF1"></path><path d="M486 766L453 638L410 728Z" fill="#7acc66" stroke="#BAFFF1"></path><path d="M410 792L486 766L410 728Z" fill="#005db2" stroke="#BAFFF1"></path><path d="M675 281L567 261L563 364Z" fill="#0085bb" stroke="#BAFFF1"></path><path d="M269 696L320 753L379 637Z" fill="#00a9b9" stroke="#BAFFF1"></path><path d="M354 754L410 792L410 728Z" fill="#250687" stroke="#BAFFF1"></path><path d="M125 357L153 490L184 470Z" fill="#0098c1" stroke="#BAFFF1"></path><path d="M184 470L153 490L194 482Z" fill="#0098c1" stroke="#BAFFF1"></path><path d="M153 490L170 619L224 560Z" fill="#00a9b9" stroke="#BAFFF1"></path><path d="M232 644L219 788L269 696Z" fill="#0098c1" stroke="#BAFFF1"></path><path d="M269 696L300 786L320 753Z" fill="#7acc66" stroke="#BAFFF1"></path><path d="M464 203L384 295L478 290Z" fill="#0047a9" stroke="#BAFFF1"></path><path d="M336 291L252 269L306 350Z" fill="#0047a9" stroke="#BAFFF1"></path><path d="M243 371L125 357L184 470Z" fill="#00a9b9" stroke="#BAFFF1"></path><path d="M341 227L252 269L336 291Z" fill="#0098c1" stroke="#BAFFF1"></path><path d="M300 786L410 792L354 754Z" fill="#0098c1" stroke="#BAFFF1"></path><path d="M539 139L464 203L527 251Z" fill="#250687" stroke="#BAFFF1"></path><path d="M527 251L464 203L478 290Z" fill="#7acc66" stroke="#BAFFF1"></path><path d="M486 766L592 759L559 665Z" fill="#250687" stroke="#BAFFF1"></path><path d="M622 685L675 689L623 634Z" fill="#0071b8" stroke="#BAFFF1"></path><path d="M497 845L592 759L486 766Z" fill="#250687" stroke="#BAFFF1"></path><path d="M675 763L675 689L622 685Z" fill="#0085bb" stroke="#BAFFF1"></path><path d="M397 145L316 207L341 227Z" fill="#0098c1" stroke="#BAFFF1"></path><path d="M341 227L316 207L252 269Z" fill="#002e9b" stroke="#BAFFF1"></path><path d="M320 753L300 786L354 754Z" fill="#00a9b9" stroke="#BAFFF1"></path><path d="M219 788L300 786L269 696Z" fill="#0098c1" stroke="#BAFFF1"></path><path d="M675 398L675 281L563 364Z" fill="#250687" stroke="#BAFFF1"></path><path d="M539 139L441 168L464 203Z" fill="#00b8a4" stroke="#BAFFF1"></path><path d="M613 189L527 251L567 261Z" fill="#00a9b9" stroke="#BAFFF1"></path><path d="M464 203L441 168L341 227Z" fill="#250687" stroke="#BAFFF1"></path><path d="M316 207L241 223L252 269Z" fill="#002e9b" stroke="#BAFFF1"></path><path d="M185 266L125 357L243 371Z" fill="#002e9b" stroke="#BAFFF1"></path><path d="M285 181L241 223L316 207Z" fill="#7acc66" stroke="#BAFFF1"></path><path d="M185 266L243 371L252 269Z" fill="#00b8a4" stroke="#BAFFF1"></path><path d="M101 630L122 650L170 619Z" fill="#26c486" stroke="#BAFFF1"></path><path d="M241 223L185 266L252 269Z" fill="#00b8a4" stroke="#BAFFF1"></path><path d="M83 529L170 619L153 490Z" fill="#0098c1" stroke="#BAFFF1"></path><path d="M170 619L122 650L232 644Z" fill="#00b8a4" stroke="#BAFFF1"></path><path d="M64 466L83 529L153 490Z" fill="#0098c1" stroke="#BAFFF1"></path><path d="M397 145L285 181L316 207Z" fill="#7acc66" stroke="#BAFFF1"></path><path d="M169 204L103 302L185 266Z" fill="#0085bb" stroke="#BAFFF1"></path><path d="M425 900L448 848L379 900Z" fill="#7acc66" stroke="#BAFFF1"></path><path d="M410 792L448 848L486 766Z" fill="#26c486" stroke="#BAFFF1"></path><path d="M448 848L497 845L486 766Z" fill="#0071b8" stroke="#BAFFF1"></path><path d="M592 759L675 763L622 685Z" fill="#00b8a4" stroke="#BAFFF1"></path><path d="M83 529L101 630L170 619Z" fill="#00b8a4" stroke="#BAFFF1"></path><path d="M441 168L397 145L341 227Z" fill="#0085bb" stroke="#BAFFF1"></path><path d="M379 72L397 145L448 42Z" fill="#0071b8" stroke="#BAFFF1"></path><path d="M136 779L232 644L122 650Z" fill="#0071b8" stroke="#BAFFF1"></path><path d="M136 779L219 788L232 644Z" fill="#0098c1" stroke="#BAFFF1"></path><path d="M379 900L448 848L410 792Z" fill="#0047a9" stroke="#BAFFF1"></path><path d="M675 281L613 189L567 261Z" fill="#0071b8" stroke="#BAFFF1"></path><path d="M594 839L675 763L592 759Z" fill="#0047a9" stroke="#BAFFF1"></path><path d="M125 357L64 466L153 490Z" fill="#00b8a4" stroke="#BAFFF1"></path><path d="M0 598L38 663L101 630Z" fill="#0047a9" stroke="#BAFFF1"></path><path d="M613 189L539 139L527 251Z" fill="#00a9b9" stroke="#BAFFF1"></path><path d="M675 281L675 213L613 189Z" fill="#0085bb" stroke="#BAFFF1"></path><path d="M613 189L630 135L539 139Z" fill="#0047a9" stroke="#BAFFF1"></path><path d="M497 845L594 839L592 759Z" fill="#0098c1" stroke="#BAFFF1"></path><path d="M169 204L185 266L241 223Z" fill="#26c486" stroke="#BAFFF1"></path><path d="M185 266L103 302L125 357Z" fill="#0047a9" stroke="#BAFFF1"></path><path d="M125 357L43 345L64 466Z" fill="#002e9b" stroke="#BAFFF1"></path><path d="M285 181L245 152L241 223Z" fill="#00a9b9" stroke="#BAFFF1"></path><path d="M322 35L245 152L285 181Z" fill="#00a9b9" stroke="#BAFFF1"></path><path d="M245 152L169 204L241 223Z" fill="#250687" stroke="#BAFFF1"></path><path d="M379 900L410 792L300 786Z" fill="#005db2" stroke="#BAFFF1"></path><path d="M448 848L487 900L497 845Z" fill="#00a9b9" stroke="#BAFFF1"></path><path d="M497 845L487 900L594 839Z" fill="#7acc66" stroke="#BAFFF1"></path><path d="M297 900L379 900L300 786Z" fill="#7acc66" stroke="#BAFFF1"></path><path d="M425 900L487 900L448 848Z" fill="#005db2" stroke="#BAFFF1"></path><path d="M113 773L136 779L122 650Z" fill="#0098c1" stroke="#BAFFF1"></path><path d="M219 788L297 900L300 786Z" fill="#7acc66" stroke="#BAFFF1"></path><path d="M675 213L630 135L613 189Z" fill="#250687" stroke="#BAFFF1"></path><path d="M539 139L536 83L441 168Z" fill="#0071b8" stroke="#BAFFF1"></path><path d="M0 262L43 345L103 302Z" fill="#0071b8" stroke="#BAFFF1"></path><path d="M103 302L43 345L125 357Z" fill="#0047a9" stroke="#BAFFF1"></path><path d="M594 839L675 836L675 763Z" fill="#0071b8" stroke="#BAFFF1"></path><path d="M618 900L675 836L594 839Z" fill="#0098c1" stroke="#BAFFF1"></path><path d="M38 663L113 773L122 650Z" fill="#005db2" stroke="#BAFFF1"></path><path d="M193 853L297 900L219 788Z" fill="#00b8a4" stroke="#BAFFF1"></path><path d="M38 663L122 650L101 630Z" fill="#26c486" stroke="#BAFFF1"></path><path d="M101 630L83 529L0 598Z" fill="#00b8a4" stroke="#BAFFF1"></path><path d="M193 853L219 788L136 779Z" fill="#0085bb" stroke="#BAFFF1"></path><path d="M0 485L83 529L64 466Z" fill="#0085bb" stroke="#BAFFF1"></path><path d="M148 849L193 853L136 779Z" fill="#26c486" stroke="#BAFFF1"></path><path d="M621 78L536 83L539 139Z" fill="#0085bb" stroke="#BAFFF1"></path><path d="M397 145L379 72L285 181Z" fill="#250687" stroke="#BAFFF1"></path><path d="M0 440L0 485L64 466Z" fill="#26c486" stroke="#BAFFF1"></path><path d="M448 42L397 145L441 168Z" fill="#0098c1" stroke="#BAFFF1"></path><path d="M245 152L187 143L169 204Z" fill="#002e9b" stroke="#BAFFF1"></path><path d="M169 204L79 192L103 302Z" fill="#005db2" stroke="#BAFFF1"></path><path d="M248 46L187 143L245 152Z" fill="#26c486" stroke="#BAFFF1"></path><path d="M0 404L0 440L64 466Z" fill="#0098c1" stroke="#BAFFF1"></path><path d="M0 262L0 404L43 345Z" fill="#0071b8" stroke="#BAFFF1"></path><path d="M43 345L0 404L64 466Z" fill="#0085bb" stroke="#BAFFF1"></path><path d="M0 485L0 598L83 529Z" fill="#0047a9" stroke="#BAFFF1"></path><path d="M487 900L618 900L594 839Z" fill="#250687" stroke="#BAFFF1"></path><path d="M675 213L675 129L630 135Z" fill="#250687" stroke="#BAFFF1"></path><path d="M630 135L621 78L539 139Z" fill="#0098c1" stroke="#BAFFF1"></path><path d="M36 848L148 849L113 773Z" fill="#002e9b" stroke="#BAFFF1"></path><path d="M113 773L148 849L136 779Z" fill="#250687" stroke="#BAFFF1"></path><path d="M193 853L202 900L297 900Z" fill="#0098c1" stroke="#BAFFF1"></path><path d="M431 0L448 42L500 0Z" fill="#00a9b9" stroke="#BAFFF1"></path><path d="M536 83L448 42L441 168Z" fill="#0085bb" stroke="#BAFFF1"></path><path d="M379 72L322 35L285 181Z" fill="#0047a9" stroke="#BAFFF1"></path><path d="M167 900L202 900L193 853Z" fill="#26c486" stroke="#BAFFF1"></path><path d="M675 129L621 78L630 135Z" fill="#00b8a4" stroke="#BAFFF1"></path><path d="M187 143L79 192L169 204Z" fill="#26c486" stroke="#BAFFF1"></path><path d="M618 900L675 900L675 836Z" fill="#7acc66" stroke="#BAFFF1"></path><path d="M0 598L0 690L38 663Z" fill="#7acc66" stroke="#BAFFF1"></path><path d="M38 663L0 690L113 773Z" fill="#0071b8" stroke="#BAFFF1"></path><path d="M333 0L322 35L379 72Z" fill="#7acc66" stroke="#BAFFF1"></path><path d="M187 143L49 134L79 192Z" fill="#7acc66" stroke="#BAFFF1"></path><path d="M46 900L167 900L148 849Z" fill="#250687" stroke="#BAFFF1"></path><path d="M148 849L167 900L193 853Z" fill="#7acc66" stroke="#BAFFF1"></path><path d="M322 35L248 46L245 152Z" fill="#005db2" stroke="#BAFFF1"></path><path d="M79 192L0 262L103 302Z" fill="#0071b8" stroke="#BAFFF1"></path><path d="M500 0L448 42L536 83Z" fill="#0071b8" stroke="#BAFFF1"></path><path d="M448 42L404 0L379 72Z" fill="#0085bb" stroke="#BAFFF1"></path><path d="M322 35L333 0L248 46Z" fill="#250687" stroke="#BAFFF1"></path><path d="M431 0L404 0L448 42Z" fill="#7acc66" stroke="#BAFFF1"></path><path d="M578 0L500 0L536 83Z" fill="#250687" stroke="#BAFFF1"></path><path d="M404 0L333 0L379 72Z" fill="#26c486" stroke="#BAFFF1"></path><path d="M0 690L0 777L113 773Z" fill="#00b8a4" stroke="#BAFFF1"></path><path d="M675 129L675 43L621 78Z" fill="#005db2" stroke="#BAFFF1"></path><path d="M621 78L578 0L536 83Z" fill="#0047a9" stroke="#BAFFF1"></path><path d="M675 43L578 0L621 78Z" fill="#0098c1" stroke="#BAFFF1"></path><path d="M248 46L184 38L187 143Z" fill="#0085bb" stroke="#BAFFF1"></path><path d="M79 192L0 186L0 262Z" fill="#002e9b" stroke="#BAFFF1"></path><path d="M210 0L184 38L248 46Z" fill="#005db2" stroke="#BAFFF1"></path><path d="M0 777L36 848L113 773Z" fill="#0085bb" stroke="#BAFFF1"></path><path d="M54 89L49 134L187 143Z" fill="#7acc66" stroke="#BAFFF1"></path><path d="M49 134L0 186L79 192Z" fill="#0098c1" stroke="#BAFFF1"></path><path d="M333 0L210 0L248 46Z" fill="#0047a9" stroke="#BAFFF1"></path><path d="M184 38L54 89L187 143Z" fill="#26c486" stroke="#BAFFF1"></path><path d="M0 91L0 161L49 134Z" fill="#0098c1" stroke="#BAFFF1"></path><path d="M49 134L0 161L0 186Z" fill="#00b8a4" stroke="#BAFFF1"></path><path d="M0 777L0 850L36 848Z" fill="#0071b8" stroke="#BAFFF1"></path><path d="M36 848L46 900L148 849Z" fill="#00b8a4" stroke="#BAFFF1"></path><path d="M0 900L46 900L36 848Z" fill="#26c486" stroke="#BAFFF1"></path><path d="M74 0L54 89L184 38Z" fill="#0047a9" stroke="#BAFFF1"></path><path d="M675 43L675 0L578 0Z" fill="#26c486" stroke="#BAFFF1"></path><path d="M210 0L171 0L184 38Z" fill="#7acc66" stroke="#BAFFF1"></path><path d="M0 850L0 900L36 848Z" fill="#7acc66" stroke="#BAFFF1"></path><path d="M0 0L0 91L54 89Z" fill="#250687" stroke="#BAFFF1"></path><path d="M54 89L0 91L49 134Z" fill="#0071b8" stroke="#BAFFF1"></path><path d="M171 0L74 0L184 38Z" fill="#005db2" stroke="#BAFFF1"></path><path d="M74 0L0 0L54 89Z" fill="#7acc66" stroke="#BAFFF1"></path></g></svg>