<svg id="visual" viewBox="0 0 450 900" width="450" height="900" xmlns="http://www.w3.org/2000/svg" xmlns:xlink="http://www.w3.org/1999/xlink" version="1.1"><rect x="0" y="0" width="450" height="900" fill="#BAFFF1"></rect><path d="M0 700L64 680L129 731L193 717L257 751L321 733L386 728L450 675L450 901L386 901L321 901L257 901L193 901L129 901L64 901L0 901Z" fill="#7acc66"></path><path d="M0 772L64 782L129 785L193 740L257 715L321 763L386 721L450 719L450 901L386 901L321 901L257 901L193 901L129 901L64 901L0 901Z" fill="#00b0b0"></path><path d="M0 761L64 774L129 765L193 798L257 778L321 777L386 754L450 768L450 901L386 901L321 901L257 901L193 901L129 901L64 901L0 901Z" fill="#0085bb"></path><path d="M0 836L64 835L129 805L193 818L257 799L321 836L386 835L450 821L450 901L386 901L321 901L257 901L193 901L129 901L64 901L0 901Z" fill="#0052ae"></path><path d="M0 836L64 843L129 870L193 842L257 835L321 871L386 872L450 855L450 901L386 901L321 901L257 901L193 901L129 901L64 901L0 901Z" fill="#250687"></path></svg>